<svg width="638" height="437" viewBox="0 0 638 437" fill="none" xmlns="http://www.w3.org/2000/svg">
<g clip-path="url(#clip0)">
<path d="M103.646 203.492C112.986 203.492 120.557 195.484 120.557 185.606C120.557 175.728 112.986 167.72 103.646 167.72C94.3064 167.72 86.7352 175.728 86.7352 185.606C86.7352 195.484 94.3064 203.492 103.646 203.492Z" fill="#FFB8B8"/>
<path d="M46.5049 399.942L50.7868 407.636L80.8835 393.829L74.5636 382.474L46.5049 399.942Z" fill="#FFB8B8"/>
<path d="M47.7879 396.501L56.2205 411.653L56.2209 411.654C56.9266 412.922 57.3892 414.325 57.5823 415.782C57.7755 417.239 57.6954 418.722 57.3466 420.147C56.9978 421.571 56.3871 422.909 55.5495 424.084C54.7118 425.259 53.6636 426.247 52.4646 426.994L52.1679 427.178L38.3614 402.37L47.7879 396.501Z" fill="#2F2E41"/>
<path d="M96.1178 427.66L104.559 427.66L108.575 393.223L96.1164 393.224L96.1178 427.66Z" fill="#FFB8B8"/>
<path d="M93.9648 424.745L110.588 424.745H110.589C111.98 424.745 113.358 425.034 114.643 425.598C115.928 426.161 117.096 426.986 118.08 428.026C119.064 429.067 119.844 430.302 120.377 431.662C120.909 433.021 121.183 434.478 121.183 435.949V436.314L93.9653 436.315L93.9648 424.745Z" fill="#2F2E41"/>
<path d="M62.1815 406.796C61.6957 406.797 61.2167 406.676 60.7832 406.444C60.3497 406.212 59.9739 405.876 59.6863 405.462L51.5454 393.767C51.297 393.411 51.1196 393.004 51.0239 392.573C50.9282 392.142 50.9162 391.694 50.9886 391.258C51.0609 390.822 51.2162 390.405 51.445 390.034C51.6738 389.663 51.9713 389.345 52.3196 389.099L88.5456 363.508L66.6873 302.719L113.431 306.799L115.005 359.038C115.153 363.795 114.075 368.505 111.886 372.665C109.697 376.824 106.481 380.275 102.58 382.65L63.7295 406.356C63.2591 406.645 62.7251 406.796 62.1815 406.796Z" fill="#2F2E41"/>
<path d="M96.3726 420.669C95.571 420.668 94.8011 420.337 94.2248 419.748C93.6484 419.159 93.3105 418.356 93.282 417.509L91.569 366.619L112.781 365.437L111.092 416.692C111.067 417.504 110.757 418.278 110.223 418.861C109.688 419.444 108.967 419.796 108.201 419.848L96.5833 420.662C96.5128 420.667 96.4426 420.669 96.3726 420.669Z" fill="#2F2E41"/>
<path d="M118.84 316.905C113.443 316.905 94.5928 310.484 88.0487 308.196C87.0697 309.024 81.6914 313.278 75.4135 312.501C71.5399 312.02 68.1297 309.701 65.2778 305.607C58.9799 296.567 66.7586 257.798 74.3932 226.867C75.9237 220.614 79.6864 215.233 84.8904 211.854C90.0943 208.476 96.3341 207.362 102.298 208.748C106.621 209.758 110.591 212.022 113.764 215.286C116.937 218.551 119.187 222.687 120.26 227.229C121.697 233.418 120.461 240.697 119.558 246.013C119.134 248.512 118.798 250.486 118.913 251.457C119.356 255.206 121.818 314.005 120.235 316.516C120.066 316.784 119.579 316.905 118.84 316.905Z" fill="#00AAE4"/>
<path d="M99.0969 317.009C99.9643 316.326 100.68 315.45 101.192 314.443C101.705 313.436 102.003 312.323 102.065 311.181C102.126 310.039 101.951 308.897 101.55 307.835C101.149 306.772 100.533 305.816 99.7452 305.033L100.079 233.78L84.2125 236.575L88.8733 305.735C87.7171 307.222 87.1169 309.106 87.1864 311.031C87.2559 312.955 87.9904 314.785 89.2505 316.175C90.5107 317.564 92.2091 318.417 94.0239 318.571C95.8386 318.724 97.6436 318.169 99.0969 317.009Z" fill="#FFB8B8"/>
<path d="M102.767 279.539H85.6763C84.8602 279.536 84.0777 279.194 83.498 278.587C82.9183 277.979 82.5878 277.155 82.578 276.292L82.1584 227.288C82.1439 225.593 82.4471 223.913 83.0506 222.343C83.6541 220.773 84.5458 219.346 85.6742 218.143C86.8026 216.94 88.1453 215.985 89.6247 215.335C91.104 214.684 92.6906 214.35 94.2928 214.352C95.8949 214.354 97.4807 214.692 98.9585 215.347C100.436 216.001 101.777 216.959 102.903 218.165C104.028 219.371 104.917 220.801 105.516 222.372C106.116 223.943 106.416 225.625 106.397 227.319L105.865 276.3C105.853 277.161 105.521 277.983 104.942 278.589C104.362 279.195 103.581 279.536 102.767 279.539Z" fill="#00AAE4"/>
<path d="M99.3401 203.417C91.5975 203.432 84.293 196.959 82.9513 188.894C82.4709 185.726 82.6875 182.483 83.5842 179.417C84.5578 175.927 86.2275 172.699 88.4807 169.949C90.7339 167.2 93.5183 164.993 96.6461 163.478C99.7738 161.963 103.172 161.175 106.613 161.167C110.053 161.158 113.455 161.93 116.589 163.43C118.66 164.422 120.7 165.846 121.649 168.031C122.597 170.216 122.004 173.271 119.929 174.254C118.573 174.897 116.872 174.581 115.669 175.504C113.941 176.829 114.386 179.648 115.157 181.753C115.929 183.857 116.801 186.404 115.508 188.199C114.303 189.872 111.894 189.82 109.997 189.191C108.1 188.561 106.227 187.506 104.249 187.721C101.364 188.034 99.2901 191.069 98.9064 194.11C98.5226 197.15 99.426 200.19 100.318 203.109L99.3401 203.417Z" fill="#2F2E41"/>
<path d="M178.327 437H0.688523C0.505915 437 0.330786 436.923 0.201663 436.787C0.07254 436.65 0 436.465 0 436.272C0 436.079 0.07254 435.893 0.201663 435.757C0.330786 435.62 0.505915 435.544 0.688523 435.544H178.327C178.51 435.544 178.685 435.62 178.814 435.757C178.943 435.893 179.016 436.079 179.016 436.272C179.016 436.465 178.943 436.65 178.814 436.787C178.685 436.923 178.51 437 178.327 437Z" fill="#CCCCCC"/>
<path d="M626.639 316.451H185.408C182.396 316.447 179.508 315.18 177.378 312.928C175.248 310.675 174.05 307.621 174.047 304.435V16.6721C174.049 14.3383 174.927 12.1007 176.487 10.4504C178.048 8.80006 180.163 7.87171 182.37 7.86902H629.533C631.778 7.87172 633.93 8.8161 635.517 10.495C637.105 12.1738 637.997 14.4501 638 16.8243V304.435C637.997 307.621 636.799 310.675 634.669 312.928C632.539 315.18 629.651 316.447 626.639 316.451Z" fill="#F2F2F2"/>
<path d="M612.373 301.28H201.157C195.129 301.28 190.225 296.423 190.225 290.453V39.8651C190.225 35.4374 193.859 31.835 198.326 31.835H615.07C619.611 31.835 623.305 35.4967 623.305 39.9973V290.453C623.305 296.423 618.401 301.28 612.373 301.28Z" fill="white"/>
<path d="M637.842 18.1695H173.887V12.0521C173.892 8.85578 175.095 5.79186 177.232 3.53244C179.37 1.27303 182.267 0.0026503 185.289 0H626.44C629.462 0.00262335 632.359 1.27299 634.497 3.53241C636.635 5.79183 637.837 8.85577 637.842 12.0521V18.1695Z" fill="#3F3D56"/>
<path d="M194.609 12.2222C196.238 12.2222 197.558 10.8256 197.558 9.10284C197.558 7.38009 196.238 5.98352 194.609 5.98352C192.98 5.98352 191.66 7.38009 191.66 9.10284C191.66 10.8256 192.98 12.2222 194.609 12.2222Z" fill="white"/>
<path d="M205.803 12.2222C207.432 12.2222 208.753 10.8256 208.753 9.10284C208.753 7.38009 207.432 5.98352 205.803 5.98352C204.175 5.98352 202.854 7.38009 202.854 9.10284C202.854 10.8256 204.175 12.2222 205.803 12.2222Z" fill="white"/>
<path d="M216.998 12.2222C218.627 12.2222 219.947 10.8256 219.947 9.10284C219.947 7.38009 218.627 5.98352 216.998 5.98352C215.369 5.98352 214.049 7.38009 214.049 9.10284C214.049 10.8256 215.369 12.2222 216.998 12.2222Z" fill="white"/>
<path d="M397.009 86.6263H316.584C315.385 86.6263 314.235 86.1225 313.388 85.2258C312.54 84.3291 312.063 83.1128 312.063 81.8446C312.063 80.5765 312.54 79.3602 313.388 78.4635C314.235 77.5668 315.385 77.063 316.584 77.063H397.009C398.208 77.063 399.358 77.5668 400.206 78.4635C401.054 79.3602 401.53 80.5765 401.53 81.8446C401.53 83.1128 401.054 84.3291 400.206 85.2258C399.358 86.1225 398.208 86.6263 397.009 86.6263Z" fill="#CCCCCC"/>
<path d="M496.946 86.6263H416.521C415.322 86.6263 414.172 86.1225 413.324 85.2258C412.476 84.3291 412 83.1128 412 81.8446C412 80.5765 412.476 79.3602 413.324 78.4635C414.172 77.5668 415.322 77.063 416.521 77.063H496.946C498.145 77.063 499.295 77.5668 500.143 78.4635C500.99 79.3602 501.467 80.5765 501.467 81.8446C501.467 83.1128 500.99 84.3291 500.143 85.2258C499.295 86.1225 498.145 86.6263 496.946 86.6263Z" fill="#CCCCCC"/>
<path d="M496.946 104.746H357.035C355.836 104.746 354.686 104.242 353.838 103.346C352.99 102.449 352.514 101.233 352.514 99.9645C352.514 98.6963 352.99 97.4801 353.838 96.5834C354.686 95.6866 355.836 95.1829 357.035 95.1829H496.946C498.145 95.1829 499.295 95.6866 500.143 96.5834C500.99 97.4801 501.467 98.6963 501.467 99.9645C501.467 101.233 500.99 102.449 500.143 103.346C499.295 104.242 498.145 104.746 496.946 104.746Z" fill="#CCCCCC"/>
<path d="M397.009 68.2546H316.584C315.386 68.253 314.238 67.7486 313.391 66.852C312.545 65.9554 312.069 64.7401 312.069 63.4729C312.069 62.2058 312.545 60.9904 313.391 60.0939C314.238 59.1973 315.386 58.6929 316.584 58.6913H397.009C397.604 58.6905 398.192 58.8136 398.741 59.0536C399.29 59.2935 399.789 59.6456 400.21 60.0897C400.63 60.5338 400.964 61.0612 401.191 61.6417C401.419 62.2222 401.536 62.8445 401.536 63.4729C401.536 64.1014 401.419 64.7236 401.191 65.3042C400.964 65.8847 400.63 66.4121 400.21 66.8562C399.789 67.3003 399.29 67.6524 398.741 67.8923C398.192 68.1323 397.604 68.2554 397.009 68.2546Z" fill="#CCCCCC"/>
<path d="M441.267 68.5063H418.424C417.225 68.5063 416.075 68.0025 415.228 67.1058C414.38 66.2091 413.903 64.9928 413.903 63.7246C413.903 62.4565 414.38 61.2402 415.228 60.3435C416.075 59.4468 417.225 58.943 418.424 58.943H441.267C442.466 58.943 443.616 59.4468 444.464 60.3435C445.312 61.2402 445.788 62.4565 445.788 63.7246C445.788 64.9928 445.312 66.2091 444.464 67.1058C443.616 68.0025 442.466 68.5063 441.267 68.5063Z" fill="#CCCCCC"/>
<path d="M339.427 104.746H316.584C315.386 104.745 314.238 104.24 313.391 103.344C312.545 102.447 312.069 101.232 312.069 99.9645C312.069 98.6974 312.545 97.482 313.391 96.5855C314.238 95.6889 315.386 95.1844 316.584 95.1829H339.427C340.021 95.1821 340.61 95.3052 341.159 95.5452C341.708 95.7851 342.207 96.1372 342.627 96.5813C343.048 97.0254 343.381 97.5528 343.609 98.1333C343.836 98.7138 343.953 99.3361 343.953 99.9645C343.953 100.593 343.836 101.215 343.609 101.796C343.381 102.376 343.048 102.904 342.627 103.348C342.207 103.792 341.708 104.144 341.159 104.384C340.61 104.624 340.021 104.747 339.427 104.746Z" fill="#CCCCCC"/>
<path d="M397.009 256.304H316.584C315.385 256.304 314.235 255.8 313.388 254.903C312.54 254.007 312.063 252.79 312.063 251.522C312.063 250.254 312.54 249.038 313.388 248.141C314.235 247.244 315.385 246.741 316.584 246.741H397.009C397.603 246.741 398.191 246.864 398.739 247.105C399.288 247.345 399.786 247.697 400.206 248.141C400.626 248.585 400.959 249.112 401.186 249.692C401.413 250.273 401.53 250.894 401.53 251.522C401.53 252.15 401.413 252.772 401.186 253.352C400.959 253.932 400.626 254.459 400.206 254.903C399.786 255.347 399.288 255.7 398.739 255.94C398.191 256.18 397.603 256.304 397.009 256.304Z" fill="#CCCCCC"/>
<path d="M496.946 256.304H416.521C415.322 256.304 414.172 255.8 413.324 254.903C412.476 254.007 412 252.79 412 251.522C412 250.254 412.476 249.038 413.324 248.141C414.172 247.244 415.322 246.741 416.521 246.741H496.946C497.54 246.741 498.127 246.864 498.676 247.105C499.224 247.345 499.723 247.697 500.143 248.141C500.562 248.585 500.895 249.112 501.123 249.692C501.35 250.273 501.467 250.894 501.467 251.522C501.467 252.15 501.35 252.772 501.123 253.352C500.895 253.932 500.562 254.459 500.143 254.903C499.723 255.347 499.224 255.7 498.676 255.94C498.127 256.18 497.54 256.304 496.946 256.304Z" fill="#CCCCCC"/>
<path d="M496.946 274.424H357.035C355.836 274.424 354.686 273.92 353.838 273.023C352.99 272.127 352.514 270.91 352.514 269.642C352.514 268.374 352.99 267.158 353.838 266.261C354.686 265.364 355.836 264.861 357.035 264.861H496.946C497.54 264.86 498.128 264.983 498.678 265.223C499.227 265.463 499.726 265.815 500.146 266.259C500.567 266.703 500.9 267.231 501.128 267.811C501.355 268.392 501.472 269.014 501.472 269.642C501.472 270.271 501.355 270.893 501.128 271.473C500.9 272.054 500.567 272.581 500.146 273.025C499.726 273.47 499.227 273.822 498.678 274.062C498.128 274.302 497.54 274.425 496.946 274.424Z" fill="#CCCCCC"/>
<path d="M397.009 237.932H316.584C315.385 237.932 314.235 237.428 313.388 236.532C312.54 235.635 312.063 234.419 312.063 233.151C312.063 231.882 312.54 230.666 313.388 229.769C314.235 228.873 315.385 228.369 316.584 228.369H397.009C398.208 228.369 399.358 228.873 400.206 229.769C401.054 230.666 401.53 231.882 401.53 233.151C401.53 234.419 401.054 235.635 400.206 236.532C399.358 237.428 398.208 237.932 397.009 237.932Z" fill="#CCCCCC"/>
<path d="M441.267 238.184H418.424C417.225 238.184 416.075 237.68 415.228 236.783C414.38 235.887 413.903 234.67 413.903 233.402C413.903 232.134 414.38 230.918 415.228 230.021C416.075 229.124 417.225 228.621 418.424 228.621H441.267C442.466 228.621 443.616 229.124 444.464 230.021C445.312 230.918 445.788 232.134 445.788 233.402C445.788 234.67 445.312 235.887 444.464 236.783C443.616 237.68 442.466 238.184 441.267 238.184Z" fill="#CCCCCC"/>
<path d="M339.427 274.424H316.584C315.385 274.424 314.235 273.92 313.388 273.023C312.54 272.127 312.063 270.91 312.063 269.642C312.063 268.374 312.54 267.158 313.388 266.261C314.235 265.364 315.385 264.861 316.584 264.861H339.427C340.021 264.86 340.61 264.983 341.159 265.223C341.708 265.463 342.207 265.815 342.627 266.259C343.048 266.703 343.381 267.231 343.609 267.811C343.836 268.392 343.953 269.014 343.953 269.642C343.953 270.271 343.836 270.893 343.609 271.473C343.381 272.054 343.048 272.581 342.627 273.025C342.207 273.47 341.708 273.822 341.159 274.062C340.61 274.302 340.021 274.425 339.427 274.424Z" fill="#CCCCCC"/>
<path d="M376.005 204.969C374.298 204.973 372.659 204.264 371.444 202.995L341.212 171.42C340.619 170.8 340.148 170.062 339.826 169.248C339.504 168.434 339.339 167.56 339.339 166.678C339.339 165.796 339.504 164.922 339.826 164.108C340.148 163.294 340.619 162.556 341.212 161.936L371.322 130.488C372.577 129.184 374.267 128.456 376.025 128.462C377.784 128.468 379.47 129.207 380.716 130.519C381.964 131.842 382.665 133.634 382.665 135.503C382.665 137.371 381.964 139.163 380.716 140.486L358.342 164.151C357.645 164.89 357.253 165.891 357.253 166.935C357.253 167.979 357.645 168.98 358.342 169.72L380.595 193.256C381.504 194.215 382.123 195.438 382.374 196.77C382.625 198.102 382.496 199.482 382.005 200.737C381.513 201.991 380.68 203.063 379.612 203.816C378.544 204.57 377.289 204.971 376.005 204.969V204.969Z" fill="#00AAE4"/>
<path d="M424.178 204.969C422.894 204.971 421.638 204.57 420.57 203.816C419.502 203.063 418.67 201.991 418.178 200.736C417.686 199.482 417.558 198.102 417.809 196.77C418.06 195.438 418.679 194.215 419.588 193.256L441.841 169.719C442.538 168.98 442.929 167.979 442.929 166.935C442.929 165.891 442.538 164.89 441.841 164.151L419.466 140.486C418.848 139.832 418.357 139.055 418.022 138.199C417.687 137.344 417.515 136.428 417.515 135.502C417.515 134.577 417.687 133.66 418.022 132.805C418.357 131.95 418.848 131.173 419.466 130.519C420.713 129.207 422.399 128.468 424.157 128.462C425.916 128.456 427.606 129.184 428.86 130.488L458.97 161.936C459.564 162.556 460.035 163.294 460.357 164.108C460.678 164.922 460.844 165.796 460.844 166.678C460.844 167.56 460.678 168.433 460.357 169.247C460.035 170.061 459.564 170.8 458.97 171.42L428.738 202.995C427.524 204.263 425.884 204.973 424.178 204.969Z" fill="#00AAE4"/>
</g>
<defs>
<clipPath id="clip0">
<rect width="638" height="437" fill="white"/>
</clipPath>
</defs>
</svg>
