<svg width="65" height="65" viewBox="0 0 65 65" fill="none" xmlns="http://www.w3.org/2000/svg">
<g clip-path="url(#clip0)">
<path d="M37.004 65H27.996C25.7969 65 23.9254 63.4969 23.4433 61.3465L22.3004 56.2737C20.4398 55.4856 18.6685 54.4565 17.0083 53.2025L12.0737 54.7598C9.95583 55.4125 7.65374 54.516 6.59208 52.6256L2.10166 44.8581C1.02645 42.9352 1.38937 40.5654 2.97374 39.0758L6.79791 35.5604C6.68145 34.5312 6.62187 33.5048 6.62187 32.5C6.62187 31.4952 6.67874 30.4687 6.7952 29.4396L2.98999 25.9404C1.38937 24.4346 1.02374 22.0675 2.08812 20.169L6.60562 12.3554C7.65645 10.4867 9.95583 9.58208 12.0683 10.2402L17.0083 11.7975C18.6685 10.5435 20.4425 9.51437 22.3004 8.72625L23.4433 3.65083C23.9254 1.50313 25.7969 0 27.996 0H37.004C39.2031 0 41.0746 1.50312 41.5567 3.65354L42.6996 8.72625C44.5602 9.51437 46.3314 10.5435 47.9917 11.7975L52.9262 10.2402C55.0387 9.57937 57.3435 10.484 58.4079 12.3744L62.8983 20.1419C63.9735 22.0648 63.6106 24.4346 62.0262 25.9242L58.2021 29.4396C58.3185 30.4687 58.3754 31.4952 58.3754 32.5C58.3754 33.5048 58.3185 34.5312 58.2021 35.5604L62.01 39.0596C62.0154 39.065 62.0208 39.0704 62.0262 39.0758C63.6106 40.5654 63.9762 42.9325 62.9119 44.831L58.3944 52.6446C57.3408 54.5133 55.0415 55.4179 52.9317 54.7598L47.9889 53.1998C46.3287 54.4537 44.5548 55.4829 42.6969 56.271L41.554 61.3465C41.0746 63.4969 39.2031 65 37.004 65ZM17.4254 48.9098C17.8912 48.9098 18.349 49.0696 18.72 49.3729C20.5752 50.9031 22.6065 52.0812 24.7542 52.8748C25.3987 53.1131 25.8808 53.6629 26.0325 54.3346L27.411 60.4554C27.4733 60.7344 27.7225 60.9375 28.0015 60.9375H37.0094C37.2883 60.9375 37.5348 60.7344 37.5998 60.4581L38.9783 54.3373C39.13 53.6656 39.6094 53.1158 40.2567 52.8775C42.4044 52.084 44.4356 50.9031 46.2908 49.3756C46.8217 48.9369 47.534 48.796 48.1948 49.0046L54.1558 50.8869C54.4375 50.9735 54.7408 50.876 54.8735 50.635L59.391 42.8242C59.5265 42.5831 59.4777 42.2527 59.2583 42.0415L54.6867 37.8381C54.1883 37.3804 53.9527 36.7087 54.0556 36.0398C54.2344 34.8481 54.3265 33.6565 54.3265 32.5C54.3265 31.3435 54.2371 30.1546 54.0556 28.9602C53.9554 28.2912 54.191 27.6196 54.6867 27.1619L59.2692 22.9477C59.475 22.7527 59.5292 22.4196 59.3775 22.1515L54.8871 14.3867C54.7408 14.1294 54.4483 14.0292 54.1504 14.1158L48.1975 15.9954C47.5367 16.204 46.8244 16.0631 46.2935 15.6244C44.4383 14.0942 42.4071 12.916 40.2594 12.1225C39.6148 11.8842 39.1327 11.3344 38.981 10.6627L37.6025 4.54187C37.5294 4.26562 37.2829 4.0625 37.004 4.0625H27.996C27.7171 4.0625 27.4706 4.26562 27.4056 4.54187L26.0271 10.6654C25.8781 11.3371 25.396 11.8842 24.7515 12.1252C22.6037 12.9188 20.5725 14.0969 18.7173 15.6271C18.1865 16.0658 17.4742 16.204 16.8133 15.9981L10.8523 14.1158C10.5706 14.0292 10.2673 14.1294 10.1346 14.3677L5.61708 22.1758C5.47895 22.4196 5.53312 22.7527 5.7552 22.964L10.3242 27.1619C10.8225 27.6196 11.0581 28.2912 10.9552 28.9602C10.7765 30.1519 10.6844 31.3435 10.6844 32.5C10.6844 33.6565 10.7737 34.8454 10.9552 36.0398C11.0554 36.7087 10.8198 37.3804 10.3242 37.8381L5.74166 42.0523C5.53583 42.2473 5.48166 42.5804 5.63333 42.8485L10.1237 50.6133C10.2727 50.8733 10.5679 50.979 10.8604 50.8842L16.8133 49.0046C17.0137 48.9396 17.2196 48.9098 17.4254 48.9098Z" fill="white"/>
<path d="M30.4715 43.3333C30.3171 43.3333 30.1654 43.3171 30.011 43.2818C28.9196 43.03 28.2371 41.9385 28.489 40.8471L32.5515 23.2429C32.8033 22.146 33.9083 21.4716 34.9863 21.7181C36.0777 21.97 36.7602 23.0614 36.5083 24.1529L32.4458 41.7571C32.2292 42.6996 31.395 43.3333 30.4715 43.3333Z" fill="white"/>
<path d="M41.3021 40.625C40.7468 40.625 40.1943 40.4002 39.7908 39.9533C39.0406 39.1192 39.1083 37.8354 39.9425 37.0825L45.0368 32.5L39.9425 27.9175C39.1083 27.1673 39.0406 25.8835 39.7908 25.0467C40.5437 24.2152 41.8275 24.1475 42.6616 24.895L49.4325 30.9887C49.8604 31.376 50.1041 31.9258 50.1041 32.5C50.1041 33.0742 49.8604 33.6239 49.4325 34.0112L42.6616 40.105C42.2716 40.4544 41.7868 40.625 41.3021 40.625Z" fill="white"/>
<path d="M23.6979 40.625C23.2131 40.625 22.7283 40.4544 22.3383 40.105L15.5675 34.0112C15.1396 33.6239 14.8958 33.0742 14.8958 32.5C14.8958 31.9258 15.1396 31.376 15.5675 30.9887L22.3383 24.895C23.1725 24.1448 24.4536 24.2125 25.2092 25.0467C25.9594 25.8808 25.8917 27.1646 25.0575 27.9175L19.9631 32.5L25.0575 37.0825C25.8917 37.8327 25.9594 39.1164 25.2092 39.9533C24.8056 40.4002 24.2531 40.625 23.6979 40.625Z" fill="white"/>
</g>
<defs>
<clipPath id="clip0">
<rect width="65" height="65" fill="white"/>
</clipPath>
</defs>
</svg>
